<?xml version="1.0" standalone="no"?>
<!DOCTYPE svg PUBLIC "-//W3C//DTD SVG 20010904//EN"
 "http://www.w3.org/TR/2001/REC-SVG-20010904/DTD/svg10.dtd">
<svg version="1.0" xmlns="http://www.w3.org/2000/svg"
 width="700.000000pt" height="700.000000pt" viewBox="0 0 700.000000 700.000000"
 preserveAspectRatio="xMidYMid meet">
<metadata>
Created by potrace 1.11, written by Peter Selinger 2001-2013
</metadata>
<g transform="translate(0.000000,700.000000) scale(0.100000,-0.100000)"
fill="#000000" stroke="none">
<path d="M1352 5522 l-102 -3 0 -1438 0 -1438 -181 -179 c-99 -98 -181 -180
-183 -181 -1 -1 -19 4 -39 11 -53 18 -94 9 -132 -29 -48 -48 -53 -119 -11
-168 83 -96 238 -33 223 92 -2 22 -10 47 -17 55 -10 13 46 73 338 365 l350
350 -2 1278 -1 1278 -71 5 c-39 3 -116 4 -172 2z m-480 -3271 c29 -26 33 -35
32 -77 -1 -41 -6 -52 -32 -74 -17 -14 -43 -27 -57 -28 -38 -3 -90 24 -104 54
-49 109 73 204 161 125z"/>
<path d="M4198 5522 l-67 -3 -1076 -1076 -1076 -1076 1068 -1067 1068 -1068
278 1 c152 0 277 2 277 6 0 3 -478 484 -1062 1068 l-1063 1063 1075 1075 c591
591 1068 1075 1060 1075 -241 4 -429 4 -482 2z"/>
<path d="M5531 5522 l-84 -3 -1076 -1075 -1075 -1075 1068 -1068 1068 -1069
272 0 c149 0 274 2 279 5 4 2 -470 481 -1053 1065 -583 583 -1060 1063 -1060
1066 0 4 475 482 1056 1062 580 580 1060 1063 1065 1072 9 16 -5 17 -183 20
-106 2 -231 2 -277 0z"/>
<path d="M1985 2954 c-62 -31 -90 -107 -62 -163 l15 -30 -216 -221 c-118 -122
-273 -280 -344 -352 l-128 -130 0 -414 0 -414 174 0 174 0 0 576 0 576 163
167 c183 186 195 196 212 183 7 -6 28 -12 48 -15 143 -18 202 175 72 238 -39
19 -70 19 -108 -1z m127 -41 c32 -31 40 -68 23 -110 -29 -68 -115 -87 -166
-36 -99 98 41 241 143 146z"/>
</g>
</svg>
